<svg xmlns="http://www.w3.org/2000/svg" xmlns:xlink="http://www.w3.org/1999/xlink" width="300" zoomAndPan="magnify" viewBox="0 0 224.87999 74.999997" height="100" preserveAspectRatio="xMidYMid meet" version="1.0"><defs><g/><clipPath id="08eba54b9a"><path d="M 35 0.0195312 L 189 0.0195312 L 189 74.980469 L 35 74.980469 Z M 35 0.0195312 " clip-rule="nonzero"/></clipPath><clipPath id="cf57af4b66"><path d="M 9 0.0195312 L 30 0.0195312 L 30 26 L 9 26 Z M 9 0.0195312 " clip-rule="nonzero"/></clipPath><clipPath id="2084080629"><path d="M 125 0.0195312 L 146 0.0195312 L 146 26 L 125 26 Z M 125 0.0195312 " clip-rule="nonzero"/></clipPath><clipPath id="4c25d95405"><rect x="0" width="154" y="0" height="75"/></clipPath></defs><g clip-path="url(#08eba54b9a)"><g transform="matrix(1, 0, 0, 1, 35, -0.000000000000000847)"><g clip-path="url(#4c25d95405)"><g clip-path="url(#cf57af4b66)"><g fill="#ac8ffd" fill-opacity="1"><g transform="translate(2.09181, 60.005716)"><g><path d="M 12.125 -58.515625 C 12.488281 -58.953125 12.976562 -59.1875 13.59375 -59.21875 C 14.125 -59.21875 14.582031 -59.035156 14.96875 -58.671875 C 15.351562 -58.304688 15.550781 -57.851562 15.5625 -57.3125 C 15.5625 -56.832031 15.414062 -56.414062 15.125 -56.0625 C 13.90625 -54.65625 12.957031 -53 12.28125 -51.09375 C 11.601562 -49.195312 11.265625 -47.210938 11.265625 -45.140625 C 11.265625 -43.578125 11.453125 -42.125 11.828125 -40.78125 C 12.210938 -39.445312 12.722656 -38.40625 13.359375 -37.65625 C 13.617188 -37.269531 13.75 -36.867188 13.75 -36.453125 C 13.75 -35.929688 13.5625 -35.484375 13.1875 -35.109375 C 12.820312 -34.734375 12.378906 -34.539062 11.859375 -34.53125 C 11.546875 -34.53125 11.242188 -34.59375 10.953125 -34.71875 C 10.671875 -34.851562 10.445312 -35.03125 10.28125 -35.25 C 9.320312 -36.414062 8.585938 -37.875 8.078125 -39.625 C 7.578125 -41.375 7.328125 -43.253906 7.328125 -45.265625 C 7.328125 -47.734375 7.738281 -50.109375 8.5625 -52.390625 C 9.394531 -54.679688 10.582031 -56.722656 12.125 -58.515625 Z M 23.703125 -58.546875 C 24.066406 -58.992188 24.554688 -59.21875 25.171875 -59.21875 C 25.703125 -59.21875 26.15625 -59.03125 26.53125 -58.65625 C 26.90625 -58.289062 27.09375 -57.835938 27.09375 -57.296875 C 27.09375 -56.804688 26.9375 -56.390625 26.625 -56.046875 C 25.34375 -54.617188 24.34375 -52.925781 23.625 -50.96875 C 22.914062 -49.007812 22.5625 -46.972656 22.5625 -44.859375 C 22.5625 -43.359375 22.734375 -41.96875 23.078125 -40.6875 C 23.421875 -39.414062 23.890625 -38.414062 24.484375 -37.6875 C 24.734375 -37.332031 24.859375 -36.941406 24.859375 -36.515625 C 24.859375 -35.972656 24.671875 -35.515625 24.296875 -35.140625 C 23.921875 -34.765625 23.460938 -34.578125 22.921875 -34.578125 C 22.609375 -34.578125 22.316406 -34.640625 22.046875 -34.765625 C 21.773438 -34.898438 21.546875 -35.09375 21.359375 -35.34375 C 20.453125 -36.488281 19.765625 -37.882812 19.296875 -39.53125 C 18.828125 -41.1875 18.59375 -42.960938 18.59375 -44.859375 C 18.59375 -47.429688 19.035156 -49.898438 19.921875 -52.265625 C 20.804688 -54.640625 22.066406 -56.734375 23.703125 -58.546875 Z M 23.703125 -58.546875 "/></g></g></g></g><g fill="#ac8ffd" fill-opacity="1"><g transform="translate(36.225975, 60.005716)"><g><path d="M 13.5625 -21.5625 C 11.0625 -21.53125 9.140625 -20.691406 7.796875 -19.046875 C 6.460938 -17.398438 5.796875 -15.03125 5.796875 -11.9375 C 5.796875 -10.257812 6.082031 -8.789062 6.65625 -7.53125 C 7.226562 -6.269531 8.03125 -5.296875 9.0625 -4.609375 C 10.09375 -3.921875 11.296875 -3.578125 12.671875 -3.578125 C 14.234375 -3.578125 15.671875 -4.082031 16.984375 -5.09375 C 18.296875 -6.113281 19.335938 -7.507812 20.109375 -9.28125 C 20.890625 -11.050781 21.28125 -13.023438 21.28125 -15.203125 L 21.28125 -17.578125 C 20.09375 -19.003906 18.894531 -20.035156 17.6875 -20.671875 C 16.476562 -21.304688 15.128906 -21.601562 13.640625 -21.5625 Z M 21.078125 -48.109375 C 21.078125 -48.671875 21.269531 -49.140625 21.65625 -49.515625 C 22.050781 -49.898438 22.515625 -50.09375 23.046875 -50.09375 C 23.609375 -50.09375 24.078125 -49.898438 24.453125 -49.515625 C 24.835938 -49.140625 25.03125 -48.671875 25.03125 -48.109375 L 25.03125 -7.609375 C 25.03125 -6.304688 25.351562 -5.304688 26 -4.609375 C 26.644531 -3.921875 27.554688 -3.578125 28.734375 -3.578125 C 29.253906 -3.578125 29.695312 -3.394531 30.0625 -3.03125 C 30.425781 -2.664062 30.609375 -2.21875 30.609375 -1.6875 C 30.609375 -1.164062 30.425781 -0.722656 30.0625 -0.359375 C 29.695312 0.00390625 29.253906 0.1875 28.734375 0.1875 C 27.015625 0.1875 25.539062 -0.242188 24.3125 -1.109375 C 23.09375 -1.972656 22.226562 -3.164062 21.71875 -4.6875 C 20.59375 -3.144531 19.25 -1.945312 17.6875 -1.09375 C 16.132812 -0.238281 14.460938 0.1875 12.671875 0.1875 C 10.554688 0.1875 8.675781 -0.328125 7.03125 -1.359375 C 5.382812 -2.398438 4.101562 -3.84375 3.1875 -5.6875 C 2.28125 -7.53125 1.828125 -9.613281 1.828125 -11.9375 C 1.828125 -14.632812 2.300781 -16.988281 3.25 -19 C 4.195312 -21.019531 5.566406 -22.578125 7.359375 -23.671875 C 9.148438 -24.773438 11.269531 -25.328125 13.71875 -25.328125 C 16.445312 -25.328125 18.898438 -24.535156 21.078125 -22.953125 Z M 21.078125 -48.109375 "/></g></g></g><g fill="#ac8ffd" fill-opacity="1"><g transform="translate(64.962236, 60.005716)"><g><path d="M 15.71875 -21.46875 C 14.664062 -21.46875 13.722656 -21.179688 12.890625 -20.609375 C 12.066406 -20.046875 11.425781 -19.226562 10.96875 -18.15625 C 10.519531 -17.09375 10.296875 -15.832031 10.296875 -14.375 C 10.296875 -11.800781 10.890625 -9.644531 12.078125 -7.90625 C 17.117188 -10.976562 19.640625 -14.191406 19.640625 -17.546875 C 19.640625 -18.734375 19.28125 -19.679688 18.5625 -20.390625 C 17.851562 -21.109375 16.90625 -21.46875 15.71875 -21.46875 Z M 22.171875 -3.46875 C 24.179688 -3.46875 26.117188 -3.707031 27.984375 -4.1875 C 29.859375 -4.675781 31.757812 -5.4375 33.6875 -6.46875 C 33.96875 -6.601562 34.265625 -6.671875 34.578125 -6.671875 C 35.097656 -6.671875 35.539062 -6.488281 35.90625 -6.125 C 36.269531 -5.757812 36.453125 -5.316406 36.453125 -4.796875 C 36.453125 -4.453125 36.359375 -4.125 36.171875 -3.8125 C 35.992188 -3.507812 35.757812 -3.28125 35.46875 -3.125 C 33.28125 -1.957031 31.09375 -1.097656 28.90625 -0.546875 C 26.726562 0.00390625 24.484375 0.28125 22.171875 0.28125 C 19.960938 0.28125 17.941406 -0.00390625 16.109375 -0.578125 C 14.273438 -1.148438 12.671875 -1.992188 11.296875 -3.109375 C 9.503906 -2.023438 7.644531 -1.203125 5.71875 -0.640625 C 3.800781 -0.0859375 1.894531 0.1875 0 0.1875 C -0.519531 0.1875 -0.960938 0.00390625 -1.328125 -0.359375 C -1.691406 -0.722656 -1.875 -1.164062 -1.875 -1.6875 C -1.875 -2.21875 -1.691406 -2.664062 -1.328125 -3.03125 C -0.960938 -3.394531 -0.519531 -3.578125 0 -3.578125 C 2.914062 -3.578125 5.8125 -4.367188 8.6875 -5.953125 C 7.125 -8.296875 6.34375 -11.101562 6.34375 -14.375 C 6.34375 -16.457031 6.734375 -18.320312 7.515625 -19.96875 C 8.304688 -21.625 9.410156 -22.910156 10.828125 -23.828125 C 12.242188 -24.753906 13.875 -25.21875 15.71875 -25.21875 C 17.1875 -25.21875 18.5 -24.882812 19.65625 -24.21875 C 20.820312 -23.5625 21.734375 -22.648438 22.390625 -21.484375 C 23.054688 -20.316406 23.390625 -19.003906 23.390625 -17.546875 C 23.390625 -13.023438 20.566406 -8.921875 14.921875 -5.234375 C 16.847656 -4.054688 19.265625 -3.46875 22.171875 -3.46875 Z M 22.171875 -3.46875 "/></g></g></g><g fill="#ac8ffd" fill-opacity="1"><g transform="translate(98.809496, 60.005716)"><g><path d="M 4.84375 -21.46875 C 3.820312 -21.46875 2.910156 -21.148438 2.109375 -20.515625 C 1.304688 -19.890625 0.675781 -18.992188 0.21875 -17.828125 C -0.238281 -16.671875 -0.46875 -15.3125 -0.46875 -13.75 C -0.46875 -11.363281 0.0351562 -9.3125 1.046875 -7.59375 C 2.578125 -8.4375 3.910156 -9.414062 5.046875 -10.53125 C 6.179688 -11.644531 7.0625 -12.804688 7.6875 -14.015625 C 8.3125 -15.222656 8.625 -16.382812 8.625 -17.5 C 8.625 -18.71875 8.28125 -19.679688 7.59375 -20.390625 C 6.914062 -21.109375 6 -21.46875 4.84375 -21.46875 Z M 8.1875 -3.46875 C 9.738281 -3.46875 11.25 -3.863281 12.71875 -4.65625 C 14.1875 -5.445312 15.421875 -6.554688 16.421875 -7.984375 C 16.597656 -8.222656 16.820312 -8.410156 17.09375 -8.546875 C 17.363281 -8.691406 17.65625 -8.765625 17.96875 -8.765625 C 18.488281 -8.765625 18.929688 -8.582031 19.296875 -8.21875 C 19.660156 -7.851562 19.84375 -7.410156 19.84375 -6.890625 C 19.84375 -6.472656 19.726562 -6.109375 19.5 -5.796875 C 18.144531 -3.878906 16.453125 -2.382812 14.421875 -1.3125 C 12.398438 -0.25 10.320312 0.28125 8.1875 0.28125 C 5.75 0.28125 3.570312 -0.316406 1.65625 -1.515625 C -0.25 -2.710938 -1.738281 -4.378906 -2.8125 -6.515625 C -3.894531 -8.660156 -4.4375 -11.070312 -4.4375 -13.75 C -4.4375 -15.914062 -4.046875 -17.875 -3.265625 -19.625 C -2.492188 -21.375 -1.40625 -22.742188 0 -23.734375 C 1.40625 -24.722656 3.019531 -25.21875 4.84375 -25.21875 C 6.289062 -25.21875 7.585938 -24.890625 8.734375 -24.234375 C 9.878906 -23.585938 10.773438 -22.675781 11.421875 -21.5 C 12.066406 -20.320312 12.390625 -18.988281 12.390625 -17.5 C 12.390625 -15.96875 12.023438 -14.421875 11.296875 -12.859375 C 10.578125 -11.296875 9.5625 -9.816406 8.25 -8.421875 C 6.9375 -7.035156 5.410156 -5.8125 3.671875 -4.75 C 5.015625 -3.894531 6.519531 -3.46875 8.1875 -3.46875 Z M 8.1875 -3.46875 "/></g></g></g><g clip-path="url(#2084080629)"><g fill="#ac8ffd" fill-opacity="1"><g transform="translate(119.175138, 60.005716)"><g><path d="M 21.484375 -35.3125 C 21.117188 -34.875 20.632812 -34.640625 20.03125 -34.609375 C 19.488281 -34.609375 19.023438 -34.789062 18.640625 -35.15625 C 18.265625 -35.519531 18.066406 -35.972656 18.046875 -36.515625 C 18.046875 -36.992188 18.191406 -37.410156 18.484375 -37.765625 C 19.703125 -39.171875 20.648438 -40.820312 21.328125 -42.71875 C 22.003906 -44.625 22.34375 -46.613281 22.34375 -48.6875 C 22.34375 -50.25 22.148438 -51.695312 21.765625 -53.03125 C 21.390625 -54.375 20.890625 -55.421875 20.265625 -56.171875 C 20.003906 -56.554688 19.875 -56.957031 19.875 -57.375 C 19.875 -57.894531 20.054688 -58.34375 20.421875 -58.71875 C 20.785156 -59.09375 21.226562 -59.285156 21.75 -59.296875 C 22.0625 -59.296875 22.359375 -59.226562 22.640625 -59.09375 C 22.929688 -58.96875 23.164062 -58.796875 23.34375 -58.578125 C 24.300781 -57.410156 25.03125 -55.953125 25.53125 -54.203125 C 26.03125 -52.453125 26.28125 -50.570312 26.28125 -48.5625 C 26.28125 -46.09375 25.867188 -43.710938 25.046875 -41.421875 C 24.222656 -39.140625 23.035156 -37.101562 21.484375 -35.3125 Z M 9.90625 -35.28125 C 9.539062 -34.832031 9.054688 -34.609375 8.453125 -34.609375 C 7.910156 -34.609375 7.453125 -34.796875 7.078125 -35.171875 C 6.703125 -35.546875 6.515625 -36 6.515625 -36.53125 C 6.515625 -37.019531 6.671875 -37.4375 6.984375 -37.78125 C 8.273438 -39.207031 9.273438 -40.898438 9.984375 -42.859375 C 10.703125 -44.816406 11.0625 -46.851562 11.0625 -48.96875 C 11.0625 -50.46875 10.882812 -51.851562 10.53125 -53.125 C 10.1875 -54.40625 9.71875 -55.410156 9.125 -56.140625 C 8.882812 -56.492188 8.765625 -56.882812 8.765625 -57.3125 C 8.765625 -57.851562 8.953125 -58.3125 9.328125 -58.6875 C 9.703125 -59.0625 10.15625 -59.25 10.6875 -59.25 C 11 -59.25 11.289062 -59.179688 11.5625 -59.046875 C 11.832031 -58.921875 12.0625 -58.738281 12.25 -58.5 C 13.15625 -57.34375 13.84375 -55.9375 14.3125 -54.28125 C 14.78125 -52.632812 15.015625 -50.863281 15.015625 -48.96875 C 15.015625 -46.394531 14.570312 -43.921875 13.6875 -41.546875 C 12.800781 -39.179688 11.539062 -37.09375 9.90625 -35.28125 Z M 9.90625 -35.28125 "/></g></g></g></g></g></g></g></svg>