<svg width="192" height="92" viewBox="0 0 192 92" fill="none" xmlns="http://www.w3.org/2000/svg">
<mask id="mask0_25_429" style="mask-type:luminance" maskUnits="userSpaceOnUse" x="0" y="0" width="192" height="92">
<path d="M0 0H192V91.974H0V0Z" fill="white"/>
</mask>
<g mask="url(#mask0_25_429)">
<mask id="mask1_25_429" style="mask-type:luminance" maskUnits="userSpaceOnUse" x="0" y="0" width="192" height="92">
<path d="M192 0H0V92H192V0Z" fill="white"/>
</mask>
<g mask="url(#mask1_25_429)">
<path d="M31.1654 74.6967C27.3841 74.6967 23.9414 73.9415 20.832 72.4311C17.6133 70.8634 14.9049 68.5665 12.707 65.5352C8.95703 60.3738 7.08203 53.8582 7.08203 45.9988C7.08203 38.0925 8.94141 31.5717 12.6602 26.4363C14.8789 23.3738 17.6497 21.0665 20.9779 19.504C24.1081 18.0352 27.5977 17.3009 31.457 17.3009C35.8477 17.3009 39.6654 18.2436 42.9102 20.129C46.4206 22.1707 48.9779 24.9415 50.5768 28.4467L41.9779 32.379V22.9207H42.6237V32.379H33.1654V6.78003H65.5612V73.978H34.0299V59.4727H43.4883V68.9311H43.056V59.4727L51.2279 64.2384C49.3216 67.5092 46.5977 70.0925 43.0612 71.9884C39.6966 73.7957 35.7331 74.6967 31.1654 74.6967ZM31.1654 55.78C32.5612 55.78 33.5456 55.629 34.1185 55.3217C34.5195 55.103 34.7747 54.8998 34.8893 54.7071L37.6237 50.0144H52.9466V64.5196H43.4883V55.0613H56.1029V64.5196H46.6445V16.2384H56.1029V25.6967H42.6237V16.2384H52.082V41.8373H35.8997L33.3737 36.3113C33.4206 36.4102 33.4779 36.4988 33.5456 36.5717C33.556 36.5821 33.5664 36.5873 33.5716 36.5977C33.5716 36.5925 33.5664 36.5925 33.5612 36.5873C33.5247 36.5613 33.4727 36.5248 33.4049 36.4884C33.3372 36.4467 33.2122 36.405 33.0195 36.3634C32.6029 36.2644 32.082 36.2175 31.457 36.2175C30.4102 36.2175 29.5977 36.3529 29.0143 36.629C28.6341 36.8061 28.2904 37.1082 27.9831 37.53C26.6602 39.3582 25.9987 42.1811 25.9987 45.9988C25.9987 49.7644 26.6706 52.5717 28.0143 54.4207C28.3581 54.8998 28.7227 55.2332 29.1081 55.4207C29.6029 55.6602 30.2904 55.78 31.1654 55.78ZM39.4727 45.9988C39.4727 46.8217 39.5143 47.3998 39.5977 47.7175C39.4518 47.155 39.1914 46.6082 38.8164 46.0821C38.3737 45.4623 37.8372 44.9519 37.207 44.5613C36.681 44.2332 36.2018 44.0248 35.7695 43.9415C35.8477 43.9571 36.0456 43.9623 36.3581 43.9623C36.556 43.9623 36.7227 43.9571 36.8581 43.9415L36.8789 43.9467C36.4206 44.0561 35.9414 44.3009 35.431 44.6811C34.7591 45.1811 34.2122 45.7644 33.7852 46.4363C33.5195 46.8425 33.332 47.2436 33.207 47.6342C33.1706 47.7644 33.1445 47.8477 33.1393 47.8842C33.1602 47.7436 33.1654 47.5457 33.1654 47.2957V44.629C33.1654 44.379 33.1602 44.1811 33.1393 44.0405C33.1445 44.0769 33.1706 44.1655 33.207 44.2905C33.332 44.6811 33.5195 45.0821 33.7852 45.4936C34.2122 46.1655 34.7591 46.7488 35.431 47.2436C35.9414 47.6238 36.4206 47.8686 36.8789 47.9832H36.8581C36.7227 47.9727 36.556 47.9623 36.3581 47.9623C36.0404 47.9623 35.8372 47.9727 35.7435 47.9884C36.1393 47.9102 36.582 47.7227 37.0716 47.4259C37.7383 47.0248 38.3008 46.4988 38.7643 45.8477C39.1758 45.2644 39.457 44.655 39.6081 44.0196C39.5195 44.3998 39.4727 45.0613 39.4727 45.9988ZM20.556 45.9988C20.556 43.5769 20.7747 41.4467 21.2122 39.6186C21.6289 37.879 22.3372 36.3061 23.3372 34.8946C24.3893 33.4102 25.7018 32.1967 27.2799 31.2436C29.6966 29.78 32.7227 29.0457 36.3581 29.0457C40.5612 29.0457 44.0143 30.0561 46.7227 32.0717C50.2956 34.7279 52.082 38.9155 52.082 44.629V47.2957C52.082 53.0092 50.2956 57.1967 46.7227 59.8582C44.0143 61.8738 40.5612 62.879 36.3581 62.879C32.681 62.879 29.6393 62.129 27.2174 60.6238C25.6966 59.6811 24.4206 58.4832 23.3945 57.0352C22.431 55.6759 21.7331 54.1655 21.2956 52.4936C20.8008 50.6082 20.556 48.4415 20.556 45.9988Z" fill="#CCDDEA"/>
<path d="M73.8986 73.978H50.9663V18.0197H82.4924V33.0978H73.034V23.6447H73.6851V33.0978L65.4976 28.3634C67.2736 25.3009 69.6226 22.7644 72.5549 20.7592C75.9194 18.4519 79.8049 17.3009 84.2059 17.3009C87.2736 17.3009 90.0288 17.8217 92.4663 18.8634C95.4246 20.129 97.784 22.0665 99.5444 24.6811C102.06 28.4155 103.32 33.0717 103.32 38.6499V54.8113H70.8569V41.6759C70.8569 41.5874 70.8569 41.5249 70.8517 41.4936C70.8569 41.5822 70.8778 41.6915 70.9038 41.8269C71.1121 42.8478 71.5965 43.8269 72.3517 44.7749C73.3986 46.0822 74.6746 46.9572 76.1694 47.3999C76.633 47.5353 77.0028 47.603 77.2892 47.603C77.2684 47.603 77.2528 47.603 77.2424 47.603C77.2476 47.603 77.2528 47.603 77.2632 47.603C77.3465 47.5978 77.4455 47.5822 77.5549 47.5613C78.1121 47.4572 78.6851 47.2488 79.2684 46.9311C80.3257 46.3582 81.2111 45.603 81.9246 44.6551C82.4194 44.004 82.7944 43.3113 83.0496 42.5769C83.258 41.9832 83.3569 41.4936 83.3569 41.0978V73.978H73.8986ZM73.8986 55.0613V64.5197H64.4403V41.0978C64.4403 39.3634 64.6903 37.7801 65.1851 36.3634C65.5809 35.2124 66.1382 34.1707 66.8517 33.2332C67.7788 32.004 68.9194 31.0249 70.2632 30.2957C72.2424 29.2228 74.5861 28.6863 77.2892 28.6863C78.8205 28.6863 80.2267 28.8738 81.508 29.2488C83.8205 29.9311 85.6903 31.1655 87.1226 32.9572C88.8882 35.1655 89.7736 38.0717 89.7736 41.6759V45.353H80.3153V35.8947H93.8621V45.353H84.4038V38.6499C84.4038 37.5978 84.3153 36.7228 84.1434 36.0249C84.0496 35.6551 83.9559 35.3999 83.8569 35.254C84.1746 35.7228 84.5653 36.0613 85.0236 36.254L85.0288 36.2749C84.8153 36.2384 84.5444 36.2176 84.2059 36.2176C83.7059 36.2176 83.3882 36.2644 83.2476 36.3634C82.6694 36.7592 82.2111 37.2488 81.8726 37.8374L79.1382 42.5561H63.5757V27.478H73.034V36.9363H60.4246V27.478H69.883V64.5197H60.4246V55.0613H73.8986Z" fill="#CCDDEA"/>
<path d="M105.537 74.6967C100.177 74.6967 95.5576 73.1707 91.6774 70.1082C89.3337 68.2592 87.5785 65.9624 86.4066 63.2124C85.3597 60.7592 84.8389 58.0509 84.8389 55.0769C84.8389 52.3842 85.3232 49.8738 86.2972 47.5509C87.3232 45.103 88.8389 42.9728 90.8441 41.1551C94.1462 38.1603 98.6409 36.1863 104.334 35.228L116.235 33.3426L117.714 42.6863H108.256V41.3894C108.256 41.9467 108.381 42.5613 108.631 43.228C109.115 44.5353 109.938 45.629 111.089 46.504C111.703 46.9676 112.344 47.3217 113.006 47.5665C113.287 47.6655 113.532 47.7332 113.745 47.7749C113.651 47.754 113.391 47.7488 112.959 47.7488C112.49 47.7488 112.188 47.7592 112.042 47.7853C112.198 47.754 112.391 47.7072 112.615 47.6342C113.177 47.4467 113.735 47.1707 114.276 46.8061C115.532 45.9728 116.443 44.8738 117.016 43.5144C117.349 42.7228 117.516 41.9676 117.516 41.2436V51.853H85.7035V41.5301C85.7035 36.4884 87.0212 32.0613 89.6514 28.2592C92.1826 24.603 95.6357 21.8165 100.006 19.8999C103.959 18.1655 108.443 17.3009 113.464 17.3009C121.615 17.3009 128.021 19.4155 132.683 23.6447C135.261 25.9832 137.172 28.853 138.422 32.254C139.521 35.254 140.073 38.6082 140.073 42.3269V73.978H108.474V60.0509H117.933V69.5092H117.282V60.0509L125.078 65.4103C124.047 66.9051 122.709 68.3322 121.068 69.6915C119.261 71.1811 117.073 72.3894 114.5 73.3113C111.927 74.2384 108.943 74.6967 105.537 74.6967ZM105.537 55.7801C106.745 55.7801 107.599 55.6915 108.104 55.5092C108.427 55.3947 108.698 55.2801 108.907 55.1655C108.964 55.1342 109.011 55.1082 109.047 55.0822C109.052 55.0769 109.058 55.0769 109.058 55.0769C109.047 55.0822 109.042 55.0874 109.032 55.0978C109.219 54.9415 109.37 54.8061 109.485 54.6863L109.49 54.6915L112.308 50.5926H127.391V64.5197H117.933V55.0613H130.615V64.5197H121.157V42.3269C121.157 39.9259 120.761 38.3738 119.969 37.6551C119.594 37.3113 119.011 37.0197 118.229 36.7853C116.979 36.4051 115.391 36.2176 113.464 36.2176C111.089 36.2176 109.136 36.5509 107.604 37.2228C106.506 37.7072 105.703 38.3061 105.203 39.0249C104.813 39.5926 104.62 40.4259 104.62 41.5301V42.3947H95.1618V32.9363H108.058V42.3947H98.5993V41.2436C98.5993 39.4155 98.9274 37.7228 99.5889 36.1603C100.485 34.0301 101.886 32.3322 103.787 31.0665C105.24 30.0978 106.964 29.4467 108.959 29.1186C110.125 28.9259 111.459 28.8322 112.959 28.8322C114.5 28.8322 115.865 28.9363 117.052 29.1499C119.198 29.5301 121.026 30.2957 122.537 31.4415C124.292 32.7749 125.563 34.4988 126.349 36.6134C126.901 38.0822 127.172 39.6707 127.172 41.3894V50.7592L107.459 53.8842C106.235 54.0926 105.229 54.3582 104.438 54.6863C104 54.8634 103.703 55.0249 103.547 55.1655C103.62 55.103 103.683 55.004 103.745 54.8634C103.761 54.8217 103.771 54.7957 103.771 54.7801C103.761 54.8478 103.756 54.9519 103.756 55.0769C103.756 55.3478 103.771 55.5665 103.802 55.7384C103.808 55.7801 103.813 55.8113 103.823 55.8322C103.818 55.8217 103.813 55.8113 103.808 55.7905C103.714 55.5769 103.578 55.3999 103.396 55.254C103.839 55.6082 104.552 55.7801 105.537 55.7801ZM116.146 53.853C116.146 52.4936 115.792 51.1915 115.084 49.9467C114.183 48.3738 112.922 47.2228 111.292 46.4884C110.667 46.2072 110.099 46.0353 109.594 45.9728C109.636 45.978 109.771 45.9832 110.006 45.9832C110.719 45.9832 111.261 45.9467 111.631 45.8738C111.651 45.8686 111.667 45.8686 111.672 45.8634C111.641 45.8738 111.599 45.8894 111.547 45.9051C111.308 45.9936 111.052 46.1186 110.787 46.2853C109.922 46.8165 109.256 47.5405 108.782 48.4467C108.469 49.0405 108.297 49.5874 108.271 50.0874L117.714 50.6134L119.282 59.9415L110.162 61.4728L110.047 61.4884C110.407 61.4363 110.787 61.3322 111.193 61.1811C111.964 60.8842 112.683 60.4519 113.349 59.8842C114.276 59.0874 114.985 58.1238 115.479 56.9988C115.927 55.9832 116.146 54.9311 116.146 53.853ZM97.2295 53.853C97.2295 52.2957 97.5368 50.8165 98.1514 49.4155C98.8128 47.8999 99.7764 46.603 101.037 45.5197C102.771 44.0353 104.881 43.1186 107.37 42.7592L108.709 52.1238L107.141 42.7957L127.813 39.3217L127.157 51.1342C127.037 53.3686 126.495 55.3999 125.532 57.228C124.412 59.3686 122.818 61.0822 120.756 62.3634C118.026 64.0509 114.443 64.8999 110.006 64.8999C107.401 64.8999 105.245 64.5144 103.526 63.7384C101.417 62.7905 99.7972 61.3217 98.6566 59.3322C97.7087 57.6655 97.2295 55.8426 97.2295 53.853Z" fill="#CCDDEA"/>
<path d="M149.132 69.3634C145.408 69.3634 142.038 68.7957 139.028 67.6551C135.637 66.3686 132.778 64.4103 130.45 61.7801C126.273 57.0613 124.184 51.0301 124.184 43.6915C124.184 36.2176 126.267 30.0509 130.429 25.2072C132.773 22.4832 135.653 20.4467 139.064 19.1082C142.137 17.9051 145.564 17.3009 149.351 17.3009C153.101 17.3009 156.502 17.9832 159.554 19.3478C163.226 20.9936 166.148 23.6707 168.325 27.3842L160.158 32.1655V22.7072H160.59V32.1655H151.132V18.0197H182.663V58.754C182.663 68.1082 180.033 75.1967 174.773 80.0249C169.741 84.6394 162.809 86.9467 153.96 86.9467C145.809 86.9467 139.241 84.9207 134.262 80.8582C131.413 78.5405 129.278 75.6707 127.856 72.2644C126.559 69.1551 125.913 65.6863 125.913 61.853V52.3947H158.377V61.853C158.377 61.5144 158.293 61.0926 158.122 60.5926C157.705 59.353 156.95 58.2905 155.866 57.4051C155.21 56.8738 154.528 56.4728 153.809 56.2072C153.549 56.1134 153.325 56.0457 153.142 56.0144C153.351 56.0509 153.767 56.0717 154.392 56.0717C154.892 56.0717 155.231 56.0561 155.403 56.0249C154.835 56.1238 154.195 56.3999 153.481 56.8582C152.679 57.379 152.002 58.0197 151.45 58.7801C151.049 59.3322 150.741 59.9103 150.528 60.5144C150.408 60.8478 150.33 61.1655 150.288 61.4572C150.278 61.5509 150.267 61.6134 150.267 61.6394V55.8738H159.726V65.3322H159.153V55.8738L167.293 60.6863C165.705 63.3738 163.215 65.5457 159.825 67.1915C156.84 68.6394 153.273 69.3634 149.132 69.3634ZM149.132 50.4519C149.898 50.4519 150.538 50.3999 151.054 50.3061C151.314 50.254 151.481 50.2124 151.559 50.1759C151.689 50.1134 151.799 50.0561 151.877 50.004C151.892 49.9936 151.903 49.9884 151.908 49.9832C151.892 49.9936 151.877 50.0092 151.856 50.0249C151.554 50.2697 151.273 50.6134 151.007 51.0613L153.752 46.4155H169.184V61.6394C169.184 63.5301 168.913 65.254 168.372 66.7957C167.465 69.3582 165.924 71.3478 163.736 72.754C162.283 73.6967 160.564 74.3322 158.59 74.6707C157.361 74.879 155.965 74.9884 154.392 74.9884C152.668 74.9884 151.158 74.8738 149.866 74.6447C147.497 74.228 145.512 73.3686 143.918 72.0665C142.184 70.6551 140.944 68.8478 140.2 66.6447C139.705 65.1811 139.46 63.5874 139.46 61.853H148.918V71.3113H135.372V61.853H144.83C144.83 63.1603 144.991 64.2072 145.319 64.9884C145.517 65.4728 145.814 65.8738 146.21 66.1967C147.71 67.4207 150.299 68.0353 153.96 68.0353C156.21 68.0353 158.08 67.8009 159.58 67.3426C160.616 67.0249 161.418 66.603 161.981 66.0926C162.398 65.7072 162.747 65.0926 163.033 64.2436C163.507 62.8374 163.747 61.0092 163.747 58.754V27.478H173.205V36.9363H160.59V27.478H170.049V41.6238H154.736L151.997 36.9415C151.887 36.7488 151.793 36.6186 151.715 36.5509C151.741 36.5717 151.778 36.5978 151.83 36.6186C151.231 36.353 150.408 36.2176 149.351 36.2176C147.059 36.2176 145.533 36.6551 144.778 37.5353C143.658 38.8374 143.101 40.8894 143.101 43.6915C143.101 46.254 143.606 48.103 144.616 49.2436C145.325 50.0457 146.835 50.4519 149.132 50.4519ZM156.575 43.6915C156.575 43.7644 156.575 43.8113 156.58 43.8322C156.57 43.754 156.549 43.6603 156.517 43.5405C156.361 42.978 156.069 42.4207 155.637 41.879C155.075 41.1759 154.429 40.6082 153.694 40.1863C153.304 39.9624 152.934 39.8009 152.585 39.7019C152.523 39.6863 152.471 39.6759 152.434 39.6655C152.45 39.6707 152.481 39.6759 152.528 39.6811C152.731 39.7019 152.991 39.7124 153.314 39.7124C153.851 39.7124 154.231 39.6915 154.45 39.6499C154.059 39.7228 153.59 39.9415 153.049 40.2957C151.882 41.0665 151.059 42.0613 150.569 43.2853C150.372 43.7905 150.267 44.1915 150.267 44.4884V42.8269L150.273 42.8322C150.273 42.879 150.278 42.9363 150.288 42.9988C150.33 43.2749 150.413 43.5665 150.533 43.879C150.991 45.0978 151.793 46.103 152.939 46.8947C153.533 47.3061 154.07 47.5613 154.538 47.6551C154.361 47.6186 154.028 47.603 153.528 47.603C153.205 47.603 152.939 47.6134 152.726 47.6394V47.6238C153.023 47.5457 153.351 47.4051 153.694 47.2176C154.351 46.853 154.944 46.3686 155.471 45.7644C155.965 45.1967 156.309 44.5978 156.491 43.9676C156.533 43.8269 156.564 43.7072 156.575 43.603L156.58 43.5926C156.575 43.6186 156.575 43.6551 156.575 43.6915ZM137.658 43.6915C137.658 39.504 138.846 36.0509 141.21 33.3322C143.913 30.2384 148.017 28.6863 153.528 28.6863C157.757 28.6863 161.148 29.5717 163.705 31.3426C165.788 32.7801 167.293 34.728 168.221 37.1811C168.866 38.879 169.184 40.7644 169.184 42.8269V44.4884C169.184 46.6082 168.84 48.5405 168.148 50.2801C167.168 52.7436 165.601 54.6811 163.45 56.0978C160.887 57.7853 157.512 58.629 153.314 58.629C147.627 58.629 143.465 56.9676 140.83 53.6499C138.715 50.9884 137.658 47.6707 137.658 43.6915Z" fill="#CCDDEA"/>
<path d="M31.1602 65.2487C26.5039 65.2487 22.8997 63.4987 20.3477 59.9987C17.806 56.4883 16.5352 51.8217 16.5352 45.9987C16.5352 40.1394 17.7904 35.4675 20.306 31.9779C22.832 28.4935 26.5456 26.7487 31.4518 26.7487C34.1445 26.7487 36.3789 27.2696 38.1602 28.3112C39.9362 29.3425 41.207 30.6967 41.9727 32.3737H42.6185V16.2279H56.0977V64.5196H43.4935V59.4779H43.056C42.0404 61.2019 40.5456 62.5977 38.5768 63.6654C36.6185 64.7175 34.1445 65.2487 31.1602 65.2487ZM30.0143 45.9987C30.0143 47.6394 30.1602 49.0144 30.4518 50.1237C30.7435 51.2227 31.332 52.0508 32.2227 52.6029C33.1081 53.1446 34.4831 53.4154 36.3477 53.4154C38.4727 53.4154 40.0456 53.0352 41.0768 52.2696C42.1029 51.5092 42.6185 49.8477 42.6185 47.2904V44.6237C42.6185 42.0821 42.1029 40.431 41.0768 39.6654C40.0456 38.8894 38.4727 38.4987 36.3477 38.4987C34.4831 38.4987 33.0977 38.78 32.181 39.3321C31.2643 39.8894 30.6706 40.7227 30.4102 41.8321C30.1445 42.931 30.0143 44.3217 30.0143 45.9987Z" fill="#0A1716"/>
<path d="M73.9093 64.5196H60.4302V27.4779H73.0343V33.1029H73.6802C74.7323 31.2696 76.1385 29.7592 77.8885 28.5613C79.6489 27.3529 81.7531 26.7488 84.201 26.7488C87.7531 26.7488 90.2531 27.8217 91.701 29.9571C93.1437 32.0977 93.8677 34.9936 93.8677 38.6446V45.3529H80.3052V41.6654C80.3052 40.28 80.1073 39.3477 79.7218 38.8738C79.3468 38.3894 78.5343 38.1446 77.2843 38.1446C76.1854 38.1446 75.3468 38.3061 74.7635 38.6238C74.1906 38.9311 73.9093 39.7592 73.9093 41.1029V64.5196Z" fill="#0A1716"/>
<path d="M105.526 65.2488C102.359 65.2488 99.6927 64.3946 97.526 62.6863C95.3698 60.9779 94.2969 58.4467 94.2969 55.0821C94.2969 49.3634 98.1615 45.8529 105.901 44.5613L117.714 42.6863V41.3946C117.714 40.2436 117.411 39.4363 116.818 38.9779C116.219 38.5196 114.932 38.2904 112.964 38.2904C110.99 38.2904 109.677 38.5092 109.026 38.9363C108.385 39.3686 108.068 40.1394 108.068 41.2488V42.3946H95.151V41.5404C95.151 38.4571 95.9062 35.8269 97.4219 33.6446C98.9323 31.4519 101.057 29.7592 103.797 28.5613C106.547 27.3529 109.766 26.7488 113.464 26.7488C124.891 26.7488 130.609 31.9467 130.609 42.3321V64.5196H117.922V60.0613H117.276C116.745 60.8269 116.005 61.6029 115.047 62.3946C114.089 63.1863 112.839 63.8634 111.297 64.4154C109.766 64.9675 107.844 65.2488 105.526 65.2488ZM106.693 53.8529C106.693 54.4779 106.927 54.905 107.401 55.1238C107.885 55.3321 108.755 55.4363 110.005 55.4363C112.641 55.4363 114.557 55.0717 115.755 54.3321C116.964 53.5821 117.615 52.3425 117.714 50.6029L108.714 52.1238C107.365 52.3217 106.693 52.8946 106.693 53.8529Z" fill="#0A1716"/>
<path d="M149.137 59.9154C143.997 59.9154 140.127 58.4519 137.533 55.5196C134.934 52.5925 133.637 48.6446 133.637 43.6863C133.637 38.5509 134.955 34.4467 137.596 31.3738C140.247 28.2904 144.163 26.7488 149.346 26.7488C151.747 26.7488 153.856 27.1602 155.679 27.9779C157.512 28.8009 159.002 30.1967 160.158 32.1654H160.596V27.4779H173.2V58.7488C173.2 65.3321 171.585 70.1029 168.366 73.0613C165.158 76.0196 160.356 77.4988 153.971 77.4988C148.054 77.4988 143.471 76.1707 140.221 73.5196C136.981 70.879 135.366 66.9884 135.366 61.8529H148.908C148.908 63.2436 149.231 64.2019 149.887 64.7279C150.538 65.254 152.038 65.5196 154.387 65.5196C156.455 65.5196 157.856 65.2748 158.596 64.7904C159.346 64.3217 159.721 63.2696 159.721 61.6446V55.8738H159.158C158.533 56.9311 157.377 57.8686 155.7 58.6863C154.017 59.5092 151.83 59.9154 149.137 59.9154ZM147.116 43.6863C147.116 45.4675 147.481 46.8269 148.221 47.7696C148.971 48.7019 150.663 49.1654 153.304 49.1654C155.622 49.1654 157.267 48.8477 158.241 48.2071C159.226 47.5561 159.721 46.3113 159.721 44.4779V42.8321C159.721 40.9988 159.247 39.7644 158.304 39.1238C157.372 38.4727 155.783 38.1446 153.533 38.1446C150.892 38.1446 149.163 38.6186 148.346 39.5613C147.523 40.4936 147.116 41.8686 147.116 43.6863Z" fill="#0A1716"/>
</g>
</g>
</svg>
