<svg xmlns="http://www.w3.org/2000/svg" xmlns:xlink="http://www.w3.org/1999/xlink" width="500" zoomAndPan="magnify" viewBox="0 0 375 374.999991" height="500" preserveAspectRatio="xMidYMid meet" version="1.0"><defs><clipPath id="201f1f7c21"><path d="M 8 27 L 366 27 L 366 349.6875 L 8 349.6875 Z M 8 27 " clip-rule="nonzero"/></clipPath></defs><g clip-path="url(#201f1f7c21)"><path fill="#ff9300" d="M 365.21875 117.734375 L 346.335938 338.535156 C 345.796875 344.886719 340.21875 349.585938 333.882812 349.039062 L 18.75 321.984375 C 12.417969 321.441406 7.722656 315.851562 8.269531 309.503906 L 29.179688 64.980469 C 31.109375 42.433594 50.914062 25.722656 73.414062 27.65625 L 186.175781 37.339844 C 202.226562 38.714844 216.914062 46.910156 226.542969 59.851562 L 232.121094 67.347656 L 330.421875 76.179688 C 351.410156 78.050781 367.015625 96.703125 365.21875 117.734375 Z M 365.21875 117.734375 " fill-opacity="1" fill-rule="nonzero"/></g><path fill="#000000" d="M 328.945312 92.644531 L 223.292969 83.152344 L 213.296875 69.734375 C 206.492188 60.589844 196.101562 54.789062 184.757812 53.816406 L 71.996094 44.140625 C 65.511719 43.582031 59.195312 45.59375 54.214844 49.792969 C 49.238281 53.988281 46.1875 59.894531 45.628906 66.390625 L 25.589844 300.726562 C 25.46875 302.109375 25.902344 303.476562 26.796875 304.539062 C 27.683594 305.601562 28.960938 306.265625 30.34375 306.378906 L 325.121094 331.683594 C 325.269531 331.691406 325.425781 331.699219 325.574219 331.699219 C 328.25 331.699219 330.527344 329.644531 330.761719 326.921875 L 333.210938 298.3125 L 348.769531 116.324219 C 349.792969 104.339844 340.902344 93.726562 328.945312 92.644531 Z M 56.023438 67.277344 C 56.34375 63.558594 58.082031 60.179688 60.933594 57.777344 C 63.785156 55.375 67.398438 54.226562 71.109375 54.546875 L 183.871094 64.230469 C 192.242188 64.953125 199.921875 69.230469 204.9375 75.976562 L 212.140625 85.652344 C 206.683594 87.898438 201.90625 91.730469 198.507812 96.824219 L 194.039062 103.523438 C 191.476562 107.363281 187.035156 109.496094 182.449219 109.101562 L 53.390625 98.027344 Z M 36.425781 296.40625 L 37.984375 278.207031 L 322.367188 302.625 L 320.8125 320.824219 Z M 338.375 115.433594 L 323.261719 292.21875 L 38.878906 267.800781 L 52.503906 108.441406 L 181.5625 119.527344 C 182.222656 119.578125 182.882812 119.613281 183.535156 119.613281 C 191.191406 119.613281 198.410156 115.792969 202.714844 109.347656 L 207.179688 102.652344 C 211.1875 96.640625 218.128906 93.296875 225.324219 93.917969 L 241.914062 95.34375 L 328.015625 103.078125 C 334.265625 103.617188 338.914062 109.171875 338.375 115.433594 Z M 338.375 115.433594 " fill-opacity="1" fill-rule="nonzero"/></svg>