<svg width="207" height="100" viewBox="0 0 207 100" fill="none" xmlns="http://www.w3.org/2000/svg">
<mask id="mask0_22_59" style="mask-type:luminance" maskUnits="userSpaceOnUse" x="0" y="0" width="207" height="100">
<path d="M0 0H206.667V99.9479H0V0Z" fill="white"/>
</mask>
<g mask="url(#mask0_22_59)">
<mask id="mask1_22_59" style="mask-type:luminance" maskUnits="userSpaceOnUse" x="0" y="-1" width="207" height="101">
<path d="M206.667 -0.026041H0V99.974H206.667V-0.026041Z" fill="white"/>
</mask>
<g mask="url(#mask1_22_59)">
<mask id="mask2_22_59" style="mask-type:luminance" maskUnits="userSpaceOnUse" x="1" y="0" width="38" height="79">
<path d="M1.33325 0H38.6666V78.6406H1.33325V0Z" fill="white"/>
</mask>
<g mask="url(#mask2_22_59)">
<path d="M23.6695 51.2891C26.3206 51.2891 28.3674 52.1589 29.8153 53.8932C31.2581 55.6328 31.982 58.0182 31.982 61.0599V69.4974C31.982 71.112 32.2841 72.2839 32.8987 73.0182C33.5081 73.7578 34.4612 74.1224 35.7528 74.1224C36.2945 74.1224 36.7581 74.3203 37.1487 74.7057C37.5341 75.0964 37.732 75.5599 37.732 76.1016C37.732 76.6589 37.5341 77.1328 37.1487 77.5182C36.7581 77.8932 36.2945 78.0807 35.7528 78.0807C34.1539 78.0807 32.7581 77.7578 31.5653 77.1016C30.3674 76.4349 29.4403 75.4662 28.7737 74.1849C28.1174 72.8932 27.7945 71.3307 27.7945 69.4974V61.0599C27.7945 59.0495 27.4508 57.5755 26.7737 56.6432C26.0914 55.7162 25.0549 55.2474 23.6695 55.2474H23.6487C22.0653 55.2474 20.5706 55.8672 19.1695 57.1016C17.7789 58.3412 16.6591 60.0182 15.8153 62.1432C14.9664 64.2682 14.5445 66.5755 14.5445 69.0599V75.8099C14.5445 76.3828 14.3362 76.8724 13.9195 77.2891C13.5133 77.6953 13.0237 77.8932 12.4403 77.8932C11.8674 77.8932 11.3778 77.6953 10.9612 77.2891C10.5549 76.8724 10.357 76.3828 10.357 75.8099V69.6432C9.4091 71.2005 8.48722 72.6641 7.58618 74.0391C6.67993 75.4037 5.9091 76.4922 5.27368 77.3099C4.85702 77.8255 4.32576 78.0807 3.69035 78.0807C3.14868 78.0807 2.67993 77.8932 2.29451 77.5182C1.90389 77.1328 1.71118 76.6589 1.71118 76.1016C1.71118 75.6432 1.8466 75.2422 2.12785 74.8932C3.19556 73.5182 4.51327 71.5755 6.08618 69.0599C7.66952 66.5339 9.08618 64.013 10.3362 61.4974V27.3099C10.3362 20.3672 10.6539 14.8307 11.2945 10.7057C11.9299 6.57032 12.9924 3.52865 14.482 1.58074C15.982 -0.377595 18.0237 -1.35676 20.607 -1.35676C23.8414 -1.35676 26.2841 0.247405 27.9403 3.45574C29.607 6.66407 30.4403 11.138 30.4403 16.8724C30.4403 21.9557 29.6331 27.487 28.0237 33.4557C26.4247 39.4297 24.1487 45.487 21.1903 51.6224C21.9924 51.4037 22.8153 51.2891 23.6487 51.2891H23.6695ZM20.607 2.60157C19.232 2.60157 18.0966 3.36199 17.2112 4.8724C16.3206 6.38803 15.6487 8.95053 15.1903 12.5599C14.732 16.1589 14.5028 21.0755 14.5028 27.3099V55.9766C18.2789 49.0912 21.2164 42.2578 23.3153 35.4766C25.4247 28.6849 26.482 22.487 26.482 16.8724C26.482 13.7214 26.2372 11.0755 25.7528 8.93491C25.2633 6.79949 24.5862 5.20574 23.7112 4.16407C22.8362 3.1224 21.7997 2.60157 20.607 2.60157Z" fill="#ACE179"/>
</g>
<path d="M47.4696 69.9349C47.4696 71.3672 47.6987 72.4245 48.1571 73.1016C48.6258 73.7839 49.2716 74.1224 50.0946 74.1224C50.9383 74.1224 51.6466 73.9089 52.2196 73.4766C52.8029 73.0495 53.4591 72.2578 54.1987 71.1016C54.3758 70.7839 54.6206 70.5339 54.9279 70.3516C55.2456 70.1745 55.5946 70.0807 55.9696 70.0807C56.5216 70.0807 57.0008 70.2839 57.4071 70.6849C57.8237 71.0912 58.0321 71.5755 58.0321 72.1432C58.0321 72.4922 57.9279 72.8412 57.7196 73.1849C56.6883 74.8412 55.5789 76.0703 54.3862 76.8724C53.1883 77.6797 51.7612 78.0807 50.0946 78.0807C48.7039 78.0807 47.48 77.7422 46.4279 77.0599C45.3862 76.3672 44.5998 75.388 44.0737 74.1224C43.0164 75.3724 41.7716 76.3464 40.3446 77.0391C38.9123 77.737 37.3758 78.0807 35.7404 78.0807C35.1883 78.0807 34.7196 77.8932 34.3446 77.5182C33.9591 77.1328 33.7612 76.6589 33.7612 76.1016C33.7612 75.5599 33.9591 75.0964 34.3446 74.7057C34.7196 74.3203 35.1883 74.1224 35.7404 74.1224C37.0737 74.1224 38.2925 73.7474 39.4071 72.9974C40.5321 72.2474 41.4383 71.237 42.1362 69.9557C42.8289 68.6641 43.2091 67.2474 43.2821 65.7057L43.3237 53.5807C43.3237 52.987 43.5321 52.487 43.9487 52.0807C44.3654 51.6797 44.855 51.4766 45.4279 51.4766C46.0112 51.4766 46.5008 51.6797 46.9071 52.0807C47.3081 52.487 47.5112 52.987 47.5112 53.5807L47.4696 69.3724V69.9349ZM45.4279 41.3932C44.3862 41.3932 43.5425 41.0807 42.9071 40.4557C42.2664 39.8203 41.9487 38.9714 41.9487 37.9141C41.9487 36.8724 42.2664 36.0391 42.9071 35.4141C43.5425 34.7787 44.3862 34.4557 45.4279 34.4557C46.4696 34.4557 47.3081 34.7787 47.9487 35.4141C48.5841 36.0391 48.9071 36.8724 48.9071 37.9141C48.9071 38.9714 48.5841 39.8203 47.9487 40.4557C47.3081 41.0807 46.4696 41.3932 45.4279 41.3932Z" fill="#ACE179"/>
<path d="M65.033 93.6224C64.6267 93.9974 64.1632 94.1849 63.6371 94.1849C63.0642 94.1849 62.5798 93.9818 62.1788 93.5807C61.7882 93.1901 61.5955 92.711 61.5955 92.1432C61.5955 91.5287 61.8038 91.0391 62.2205 90.6641C63.9132 89.1485 65.2309 87.4141 66.1788 85.4557C67.1215 83.5078 67.5955 81.586 67.5955 79.6849C67.5955 77.5599 67.0017 75.7682 65.8246 74.3099C65.559 73.9505 65.4288 73.5391 65.4288 73.0807C65.4288 72.513 65.6215 72.0339 66.0121 71.6432C66.3975 71.2422 66.8767 71.0391 67.4496 71.0391C67.783 71.0391 68.085 71.1172 68.3663 71.2682C68.658 71.4089 68.8923 71.5964 69.0746 71.8307C70.8767 74.0807 71.783 76.7005 71.783 79.6849C71.783 82.1537 71.184 84.6224 69.9913 87.0807C68.7934 89.5391 67.1423 91.7162 65.033 93.6224Z" fill="#ACE179"/>
<path d="M113.668 69.9349C113.668 71.3672 113.897 72.4245 114.355 73.1016C114.824 73.7839 115.48 74.1224 116.313 74.1224C117.147 74.1224 117.855 73.9089 118.438 73.4766C119.022 73.0495 119.678 72.2578 120.418 71.1016C120.595 70.7839 120.839 70.5339 121.147 70.3516C121.464 70.1745 121.803 70.0807 122.168 70.0807C122.735 70.0807 123.22 70.2839 123.626 70.6849C124.027 71.0912 124.23 71.5755 124.23 72.1432C124.23 72.4922 124.131 72.8412 123.938 73.1849C122.907 74.8412 121.798 76.0703 120.605 76.8724C119.407 77.6797 117.98 78.0807 116.313 78.0807C114.756 78.0807 113.423 77.6589 112.313 76.8099C111.199 75.9505 110.402 74.7422 109.918 73.1849C108.652 75.1849 107.194 76.6641 105.543 77.6224C105.235 77.8047 104.907 77.8932 104.563 77.8932C104.006 77.8932 103.532 77.7057 103.147 77.3307C102.772 76.9453 102.584 76.4714 102.584 75.9141C102.584 75.5547 102.673 75.2214 102.855 74.9141C103.032 74.612 103.272 74.3724 103.563 74.2057C104.73 73.5287 105.761 72.4453 106.668 70.9557C107.569 69.4714 108.272 67.7891 108.772 65.9141C109.272 64.0391 109.522 62.2214 109.522 60.4557V60.3099L109.543 53.5807C109.543 52.987 109.74 52.487 110.147 52.0807C110.563 51.6797 111.053 51.4766 111.626 51.4766C112.22 51.4766 112.72 51.6797 113.126 52.0807C113.527 52.487 113.73 52.987 113.73 53.5807L113.668 69.3724V69.9349ZM111.626 41.3932C110.584 41.3932 109.74 41.0807 109.105 40.4557C108.464 39.8203 108.147 38.9714 108.147 37.9141C108.147 36.8724 108.464 36.0391 109.105 35.4141C109.74 34.7787 110.584 34.4557 111.626 34.4557C112.668 34.4557 113.506 34.7787 114.147 35.4141C114.782 36.0391 115.105 36.8724 115.105 37.9141C115.105 38.9714 114.782 39.8203 114.147 40.4557C113.506 41.0807 112.668 41.3932 111.626 41.3932Z" fill="#ACE179"/>
<path d="M131.109 40.6641C130.719 41.1537 130.203 41.3932 129.568 41.3932C128.995 41.3932 128.51 41.2005 128.109 40.8099C127.719 40.4089 127.526 39.9245 127.526 39.3516C127.526 38.8412 127.693 38.4037 128.026 38.0391C129.385 36.5287 130.443 34.7422 131.193 32.6849C131.943 30.6172 132.318 28.4662 132.318 26.2266C132.318 24.6589 132.13 23.2005 131.755 21.8516C131.391 20.4922 130.901 19.4297 130.276 18.6641C130.026 18.3047 129.901 17.8932 129.901 17.4349C129.901 16.8672 130.094 16.388 130.484 15.9974C130.87 15.5964 131.349 15.3932 131.922 15.3932C132.255 15.3932 132.557 15.4662 132.839 15.6016C133.13 15.7422 133.38 15.9349 133.589 16.1849C134.531 17.3932 135.255 18.8724 135.755 20.6224C136.255 22.362 136.505 24.2266 136.505 26.2266C136.505 28.9505 136.031 31.5599 135.089 34.0599C134.156 36.5599 132.828 38.763 131.109 40.6641Z" fill="#ACE179"/>
<path d="M152.644 59.5182C152.644 58.1589 152.384 57.138 151.873 56.4557C151.358 55.7787 150.644 55.4349 149.727 55.4349C148.988 55.4349 148.316 55.6641 147.706 56.1224C147.092 56.5703 146.456 57.362 145.79 58.4974C145.134 59.638 144.415 61.2214 143.623 63.2474C143.467 63.6224 143.227 63.9297 142.894 64.1641C142.571 64.4037 142.196 64.5182 141.769 64.5182C141.227 64.5182 140.759 64.3307 140.373 63.9557C139.983 63.5703 139.79 63.0964 139.79 62.5391C139.79 62.3047 139.837 62.0703 139.936 61.8307C140.904 59.3203 141.873 57.3203 142.831 55.8307C143.79 54.3307 144.821 53.237 145.936 52.5391C147.045 51.8307 148.311 51.4766 149.727 51.4766C151.404 51.4766 152.837 51.987 154.019 52.9974C155.212 54.013 155.988 55.388 156.352 57.1224C157.561 55.2891 158.988 53.862 160.644 52.8307C162.295 51.8047 164.061 51.2891 165.936 51.2891H165.956C167.967 51.2891 169.644 51.8047 170.977 52.8307C172.311 53.8464 173.238 55.2995 173.769 57.1849C174.977 55.3255 176.404 53.8828 178.061 52.8516C179.712 51.8099 181.483 51.2891 183.373 51.2891H183.394C186.061 51.2891 188.108 52.1589 189.54 53.8932C190.983 55.6328 191.706 58.0182 191.706 61.0599V71.2891C191.706 72.2474 191.899 72.9662 192.29 73.4349C192.691 73.8932 193.259 74.1224 193.998 74.1224C194.691 74.1224 195.311 73.9714 195.852 73.6641C196.404 73.3464 196.977 72.7891 197.561 71.9974C197.769 71.737 198.009 71.5287 198.29 71.3724C198.581 71.2057 198.899 71.1224 199.248 71.1224C199.816 71.1224 200.3 71.3255 200.706 71.7266C201.108 72.1328 201.311 72.6172 201.311 73.1849C201.311 73.6172 201.175 74.013 200.915 74.3724C199.081 76.8464 196.774 78.0807 193.998 78.0807C192.717 78.0807 191.587 77.7995 190.602 77.2266C189.628 76.6589 188.873 75.862 188.331 74.8307C187.79 73.8047 187.519 72.6224 187.519 71.2891V61.0599C187.519 59.0495 187.175 57.5755 186.498 56.6432C185.831 55.7162 184.795 55.2474 183.394 55.2474H183.373C181.79 55.2474 180.3 55.8672 178.915 57.1016C177.524 58.3412 176.399 60.0182 175.54 62.1432C174.691 64.2682 174.269 66.5755 174.269 69.0599V75.8099C174.269 76.3828 174.066 76.8724 173.665 77.2891C173.259 77.6953 172.759 77.8932 172.165 77.8932C171.608 77.8932 171.123 77.6953 170.706 77.2891C170.29 76.8724 170.081 76.3828 170.081 75.8099V61.0599C170.081 59.0495 169.738 57.5755 169.061 56.6432C168.378 55.7162 167.342 55.2474 165.956 55.2474H165.936C164.352 55.2474 162.858 55.8672 161.456 57.1016C160.066 58.3412 158.946 60.0182 158.102 62.1432C157.253 64.2682 156.831 66.5755 156.831 69.0599V75.8099C156.831 76.3828 156.628 76.8724 156.227 77.2891C155.821 77.6953 155.321 77.8932 154.727 77.8932C154.154 77.8932 153.665 77.6953 153.248 77.2891C152.842 76.8724 152.644 76.3828 152.644 75.8099V59.5182Z" fill="#ACE179"/>
</g>
</g>
</svg>
