<svg xmlns="http://www.w3.org/2000/svg" xmlns:xlink="http://www.w3.org/1999/xlink" width="500" zoomAndPan="magnify" viewBox="0 0 375 374.999991" height="500" preserveAspectRatio="xMidYMid meet" version="1.0"><defs><clipPath id="b618c5b67e"><path d="M 11 27 L 372.398438 27 L 372.398438 348 L 11 348 Z M 11 27 " clip-rule="nonzero"/></clipPath></defs><g clip-path="url(#b618c5b67e)"><path fill="#002ef4" d="M 372.355469 73.199219 L 372.355469 239.132812 C 372.355469 243.605469 370.511719 247.875 367.25 250.949219 L 269.324219 343.171875 C 265.589844 346.691406 260.398438 348.238281 255.34375 347.335938 L 35.761719 308.390625 C 10.21875 303.855469 2.6875 270.875 23.726562 255.71875 L 115.007812 189.957031 L 115.007812 43.851562 C 115.007812 34.050781 123.628906 26.488281 133.355469 27.75 L 358.203125 57.109375 C 366.296875 58.160156 372.355469 65.050781 372.355469 73.199219 Z M 372.355469 73.199219 " fill-opacity="1" fill-rule="nonzero"/></g><path fill="#000000" d="M 355.449219 239.652344 C 355.476562 239.609375 355.503906 239.566406 355.527344 239.523438 C 355.738281 239.160156 355.910156 238.761719 356.019531 238.34375 C 356.027344 238.300781 356.046875 238.257812 356.054688 238.21875 C 356.097656 238.046875 356.128906 237.871094 356.15625 237.691406 C 356.164062 237.648438 356.171875 237.613281 356.171875 237.570312 C 356.199219 237.378906 356.207031 237.183594 356.207031 236.976562 L 356.207031 85.777344 C 356.207031 78.554688 350.804688 72.402344 343.636719 71.46875 L 147.464844 45.863281 C 143.335938 45.328125 139.191406 46.585938 136.066406 49.324219 C 132.941406 52.066406 131.148438 56.023438 131.148438 60.171875 L 131.148438 198.21875 L 35.855469 266.863281 C 31.007812 270.359375 28.824219 276.136719 30.15625 281.960938 C 31.492188 287.78125 35.96875 292.042969 41.855469 293.085938 L 248.363281 329.726562 C 249.507812 329.929688 250.664062 330.03125 251.8125 330.03125 C 256.847656 330.03125 261.792969 328.113281 265.503906 324.617188 L 354.609375 240.695312 C 354.628906 240.679688 354.636719 240.671875 354.644531 240.652344 C 354.796875 240.507812 354.941406 240.355469 355.070312 240.1875 C 355.09375 240.160156 355.109375 240.125 355.136719 240.101562 C 355.253906 239.949219 355.359375 239.804688 355.449219 239.652344 Z M 142.792969 56.980469 C 143.335938 56.507812 144.492188 55.75 146.148438 55.964844 L 342.320312 81.570312 C 344.425781 81.839844 346.023438 83.65625 346.023438 85.777344 L 346.023438 230.960938 L 141.339844 196.511719 L 141.339844 60.171875 C 141.339844 58.5 142.25 57.449219 142.792969 56.980469 Z M 258.511719 317.199219 C 256.289062 319.296875 253.160156 320.230469 250.144531 319.695312 L 43.636719 283.0625 C 40.953125 282.589844 40.25 280.363281 40.09375 279.695312 C 39.941406 279.023438 39.613281 276.714844 41.820312 275.121094 L 137.5 206.195312 L 340.160156 240.304688 Z M 73.84375 268.609375 C 74.292969 270.605469 75.898438 272.140625 77.921875 272.496094 L 246.605469 302.535156 C 246.902344 302.585938 247.199219 302.609375 247.496094 302.609375 C 248.742188 302.609375 249.957031 302.152344 250.902344 301.300781 L 305.199219 252.492188 C 306.652344 251.1875 307.226562 249.164062 306.683594 247.289062 C 306.140625 245.414062 304.570312 244.015625 302.648438 243.683594 L 143.675781 216.539062 C 142.335938 216.3125 140.949219 216.625 139.84375 217.421875 L 75.839844 263.339844 C 74.175781 264.542969 73.386719 266.617188 73.84375 268.609375 Z M 207.402344 237.765625 L 190.4375 251.933594 L 165.398438 247.273438 L 182.367188 233.488281 Z M 173.679688 279.210938 L 193.292969 262.832031 L 221.265625 268.042969 L 203.011719 284.4375 Z M 203.433594 254.351562 L 219.558594 240.882812 C 219.878906 240.609375 220.160156 240.304688 220.398438 239.984375 L 247.367188 244.589844 L 230.820312 259.453125 Z M 180.296875 260.402344 L 160.582031 276.867188 L 134.628906 272.25 L 155.015625 255.691406 Z M 245.933594 292.078125 L 215.734375 286.695312 L 233.894531 270.382812 L 263.855469 275.960938 Z M 273.402344 267.386719 L 243.453125 261.8125 L 260.1875 246.78125 L 290.5625 251.964844 Z M 144.050781 226.945312 L 169.007812 231.207031 L 152.246094 244.820312 L 125.957031 239.921875 Z M 114.5 248.15625 L 141.875 253.257812 L 121.378906 269.898438 L 91.589844 264.59375 Z M 153.902344 190.09375 L 328.304688 218.476562 C 328.574219 218.519531 328.847656 218.542969 329.117188 218.542969 C 330.316406 218.542969 331.488281 218.121094 332.421875 217.332031 C 333.5625 216.363281 334.214844 214.945312 334.214844 213.453125 L 334.214844 94.425781 C 334.214844 91.871094 332.320312 89.714844 329.789062 89.378906 L 155.398438 66.191406 C 153.9375 65.996094 152.476562 66.4375 151.371094 67.402344 C 150.269531 68.371094 149.632812 69.761719 149.632812 71.230469 L 149.632812 185.0625 C 149.632812 187.566406 151.441406 189.6875 153.902344 190.09375 Z M 159.824219 77.054688 L 324.03125 98.890625 L 324.03125 207.460938 L 159.824219 180.734375 Z M 159.824219 77.054688 " fill-opacity="1" fill-rule="nonzero"/></svg>