<svg xmlns="http://www.w3.org/2000/svg" xmlns:xlink="http://www.w3.org/1999/xlink" width="500" zoomAndPan="magnify" viewBox="0 0 375 374.999991" height="500" preserveAspectRatio="xMidYMid meet" version="1.0"><defs><clipPath id="84cfeaf35d"><path d="M 49 14 L 327 14 L 327 373.164062 L 49 373.164062 Z M 49 14 " clip-rule="nonzero"/></clipPath></defs><g clip-path="url(#84cfeaf35d)"><path fill="#fb3b00" d="M 306.386719 314.359375 C 288.320312 342.863281 260.230469 362.632812 227.292969 370.027344 C 218 372.113281 208.644531 373.144531 199.347656 373.144531 C 175.6875 373.144531 152.453125 366.464844 131.972656 353.503906 C 103.445312 335.453125 83.660156 307.386719 76.257812 274.472656 L 52.339844 168.070312 C 44.941406 135.148438 50.8125 101.324219 68.878906 72.828125 C 86.941406 44.328125 115.03125 24.550781 147.972656 17.15625 C 215.980469 1.894531 283.730469 44.757812 299.003906 112.710938 L 322.925781 219.105469 C 330.324219 252.027344 324.453125 285.851562 306.386719 314.359375 Z M 306.386719 314.359375 " fill-opacity="1" fill-rule="nonzero"/></g><path fill="#000000" d="M 305.964844 222.917969 L 282.054688 116.523438 C 275.671875 88.136719 258.613281 63.925781 234.007812 48.359375 C 209.402344 32.796875 180.203125 27.730469 151.792969 34.113281 C 123.367188 40.480469 99.144531 57.535156 83.558594 82.121094 C 67.980469 106.707031 62.914062 135.878906 69.296875 164.269531 L 93.21875 270.664062 C 99.601562 299.050781 116.660156 323.261719 141.265625 338.824219 C 158.929688 350.003906 178.96875 355.761719 199.378906 355.761719 C 207.390625 355.761719 215.464844 354.875 223.480469 353.074219 C 251.890625 346.695312 276.121094 329.648438 291.695312 305.0625 C 307.285156 280.488281 312.351562 251.304688 305.964844 222.917969 Z M 271.34375 118.925781 L 279.082031 153.335938 L 188.777344 173.609375 L 183.050781 148.128906 C 192.058594 143.59375 197.199219 133.359375 194.894531 123.085938 L 189.058594 97.128906 C 186.753906 86.855469 177.71875 79.808594 167.636719 79.554688 L 159.585938 43.753906 C 164.992188 42.847656 170.371094 42.410156 175.703125 42.410156 C 220.535156 42.410156 261.109375 73.410156 271.34375 118.925781 Z M 164.527344 90.796875 C 165.378906 90.601562 166.226562 90.511719 167.078125 90.511719 C 169.246094 90.511719 171.367188 91.125 173.246094 92.304688 C 175.851562 93.957031 177.664062 96.515625 178.339844 99.53125 L 184.175781 125.488281 C 185.574219 131.703125 181.648438 137.890625 175.429688 139.289062 C 172.421875 139.964844 169.320312 139.425781 166.714844 137.78125 C 164.105469 136.128906 162.296875 133.570312 161.617188 130.550781 L 155.78125 104.597656 C 155.105469 101.589844 155.644531 98.492188 157.292969 95.886719 C 158.949219 93.28125 161.519531 91.472656 164.527344 90.796875 Z M 92.832031 87.980469 C 105.859375 67.425781 125.617188 52.730469 148.867188 46.15625 L 156.917969 81.976562 C 153.3125 83.785156 150.230469 86.519531 148.015625 90.019531 C 144.796875 95.101562 143.746094 101.132812 145.070312 107 L 150.90625 132.957031 C 153.210938 143.230469 162.25 150.265625 172.328125 150.523438 L 178.054688 176.011719 L 87.746094 196.285156 L 80.007812 161.875 C 74.273438 136.328125 78.828125 110.097656 92.832031 87.980469 Z M 282.429688 299.207031 C 268.417969 321.3125 246.628906 336.648438 221.082031 342.378906 C 195.527344 348.121094 169.265625 343.570312 147.140625 329.566406 C 125.011719 315.566406 109.664062 293.792969 103.929688 268.269531 L 90.152344 206.988281 L 281.488281 164.050781 L 295.265625 225.328125 C 301 250.855469 296.445312 277.085938 282.429688 299.207031 Z M 282.429688 299.207031 " fill-opacity="1" fill-rule="nonzero"/></svg>