<svg xmlns="http://www.w3.org/2000/svg" xmlns:xlink="http://www.w3.org/1999/xlink" width="500" zoomAndPan="magnify" viewBox="0 0 375 374.999991" height="500" preserveAspectRatio="xMidYMid meet" version="1.0"><path fill="#ff9300" d="M 298.992188 367.957031 L 212.773438 308.265625 C 208.515625 305.320312 204.875 301.5625 202.0625 297.214844 L 65.386719 86.0625 C 59.082031 76.332031 56.902344 64.753906 59.230469 53.402344 C 61.640625 41.617188 68.96875 31.40625 79.089844 24.894531 L 94.863281 14.742188 C 115.167969 1.675781 142.363281 7.535156 155.484375 27.808594 L 292.199219 239.007812 C 295.054688 243.414062 297.003906 248.351562 297.9375 253.515625 L 316.539062 356.664062 C 318.324219 366.5625 307.261719 373.675781 298.992188 367.957031 Z M 298.992188 367.957031 " fill-opacity="1" fill-rule="nonzero"/><path fill="#000000" d="M 297.109375 337.300781 L 281.824219 252.542969 C 281.710938 251.898438 281.460938 251.28125 281.105469 250.726562 L 162.21875 67.0625 C 162.15625 66.941406 162.089844 66.824219 162.015625 66.707031 C 161.933594 66.578125 161.839844 66.453125 161.742188 66.335938 L 142.320312 36.335938 C 133.886719 23.292969 116.40625 19.53125 103.347656 27.933594 L 86.972656 38.464844 C 80.617188 42.550781 76.242188 48.871094 74.648438 56.257812 C 73.054688 63.644531 74.441406 71.207031 78.542969 77.546875 L 217.265625 291.847656 C 217.273438 291.855469 217.273438 291.855469 217.28125 291.863281 C 217.4375 292.105469 217.621094 292.328125 217.808594 292.523438 C 217.851562 292.566406 217.890625 292.617188 217.933594 292.65625 C 218.140625 292.863281 218.363281 293.0625 218.601562 293.21875 C 218.601562 293.21875 218.601562 293.21875 218.609375 293.21875 L 289.417969 342.246094 C 290.269531 342.832031 291.25 343.128906 292.242188 343.128906 C 293.171875 343.128906 294.105469 342.863281 294.921875 342.34375 C 296.597656 341.265625 297.464844 339.273438 297.109375 337.300781 Z M 230.347656 289.304688 L 273.398438 261.605469 L 278.871094 291.957031 L 255.703125 306.863281 Z M 119.070312 121.910156 L 166.265625 91.535156 L 270.105469 251.949219 L 222.910156 282.324219 Z M 109.15625 106.609375 L 156.351562 76.234375 L 160.875 83.222656 L 113.679688 113.597656 Z M 84.339844 58.347656 C 85.371094 53.550781 88.210938 49.449219 92.335938 46.800781 L 100.476562 41.566406 L 108.710938 36.261719 C 117.1875 30.804688 128.539062 33.253906 134.007812 41.707031 L 150.980469 67.914062 L 103.785156 98.289062 L 86.863281 72.164062 C 84.199219 68.046875 83.308594 63.144531 84.339844 58.347656 Z M 264.523438 312.96875 L 280.777344 302.511719 L 285.25 327.324219 Z M 231.179688 257.75 C 232.65625 260.054688 231.996094 263.117188 229.695312 264.59375 C 228.867188 265.128906 227.9375 265.386719 227.019531 265.386719 C 225.394531 265.386719 223.800781 264.585938 222.851562 263.117188 L 138.328125 131.765625 C 136.847656 129.460938 137.507812 126.398438 139.8125 124.921875 C 142.113281 123.445312 145.175781 124.105469 146.652344 126.410156 Z M 250.601562 251.140625 C 249.777344 251.675781 248.84375 251.933594 247.925781 251.933594 C 246.300781 251.933594 244.707031 251.132812 243.757812 249.664062 L 159.234375 118.3125 C 157.753906 116.007812 158.414062 112.945312 160.71875 111.46875 C 163.019531 109.992188 166.082031 110.652344 167.5625 112.953125 L 252.085938 244.296875 C 253.5625 246.601562 252.902344 249.664062 250.601562 251.140625 Z M 250.601562 251.140625 " fill-opacity="1" fill-rule="nonzero"/></svg>