<svg xmlns="http://www.w3.org/2000/svg" xmlns:xlink="http://www.w3.org/1999/xlink" width="500" zoomAndPan="magnify" viewBox="0 0 375 374.999991" height="500" preserveAspectRatio="xMidYMid meet" version="1.0"><defs><clipPath id="a09a7a7d27"><path d="M 12 9.472656 L 363 9.472656 L 363 365.722656 L 12 365.722656 Z M 12 9.472656 " clip-rule="nonzero"/></clipPath></defs><g clip-path="url(#a09a7a7d27)"><path fill="#ace179" d="M 356.773438 254.640625 L 313.175781 319.285156 C 307.847656 327.1875 299.597656 332.636719 290.242188 334.464844 C 280.886719 336.289062 271.199219 334.316406 263.296875 328.984375 L 262.441406 328.402344 L 262.441406 329.433594 C 262.441406 349.269531 246.347656 365.363281 226.511719 365.363281 L 148.53125 365.363281 C 128.695312 365.363281 112.601562 349.269531 112.601562 329.433594 L 112.601562 328.402344 L 111.746094 328.984375 C 103.84375 334.316406 94.15625 336.289062 84.800781 334.464844 C 75.441406 332.652344 67.195312 327.1875 61.863281 319.285156 L 18.269531 254.65625 C 7.175781 238.203125 11.519531 215.867188 27.96875 204.773438 L 53.554688 187.511719 L 27.96875 170.25 C 11.503906 159.15625 7.160156 136.820312 18.269531 120.367188 L 61.878906 55.722656 C 72.972656 39.273438 95.308594 34.929688 111.761719 46.023438 L 112.613281 46.605469 L 112.613281 45.574219 C 112.613281 25.738281 128.707031 9.644531 148.542969 9.644531 L 226.511719 9.644531 C 246.347656 9.644531 262.441406 25.738281 262.441406 45.574219 L 262.441406 46.605469 L 263.296875 46.023438 C 279.75 34.929688 302.085938 39.273438 313.175781 55.722656 L 356.773438 120.367188 C 367.867188 136.820312 363.523438 159.15625 347.070312 170.25 L 321.488281 187.511719 L 347.070312 204.773438 C 363.539062 215.867188 367.878906 238.203125 356.773438 254.640625 Z M 356.773438 254.640625 " fill-opacity="1" fill-rule="nonzero"/></g><path fill="#000000" d="M 332.847656 225.867188 L 275.976562 187.511719 L 332.847656 149.15625 C 337.65625 145.921875 338.914062 139.410156 335.679688 134.605469 L 292.085938 69.960938 C 288.851562 65.15625 282.339844 63.898438 277.53125 67.132812 L 236.992188 94.484375 L 236.992188 45.574219 C 236.992188 39.78125 232.304688 35.09375 226.511719 35.09375 L 148.53125 35.09375 C 142.734375 35.09375 138.050781 39.78125 138.050781 45.574219 L 138.050781 94.46875 L 97.507812 67.132812 C 92.71875 63.898438 86.191406 65.15625 82.957031 69.960938 L 39.363281 134.605469 C 36.128906 139.410156 37.386719 145.921875 42.191406 149.15625 L 99.066406 187.511719 L 42.191406 225.867188 C 37.386719 229.101562 36.128906 235.613281 39.363281 240.417969 L 82.972656 305.0625 C 84.53125 307.367188 86.941406 308.953125 89.664062 309.492188 C 92.390625 310.03125 95.21875 309.449219 97.523438 307.890625 L 138.066406 280.539062 L 138.066406 329.449219 C 138.066406 335.242188 142.75 339.929688 148.542969 339.929688 L 226.511719 339.929688 C 232.304688 339.929688 236.992188 335.242188 236.992188 329.449219 L 236.992188 280.539062 L 277.53125 307.890625 C 279.839844 309.449219 282.667969 310.015625 285.390625 309.492188 C 288.117188 308.96875 290.527344 307.367188 292.085938 305.0625 L 335.679688 240.417969 C 338.914062 235.613281 337.65625 229.101562 332.847656 225.867188 Z M 280.554688 284.65625 L 232.367188 252.15625 C 229.160156 249.984375 225.015625 249.773438 221.585938 251.585938 C 218.160156 253.398438 216.03125 256.960938 216.03125 260.839844 L 216.03125 318.96875 L 159.007812 318.96875 L 159.007812 260.839844 C 159.007812 256.960938 156.867188 253.398438 153.457031 251.585938 C 150.027344 249.773438 145.894531 249.984375 142.675781 252.15625 L 94.484375 284.65625 L 62.597656 237.394531 L 123.664062 196.210938 C 126.554688 194.261719 128.289062 191 128.289062 187.527344 C 128.289062 184.054688 126.554688 180.789062 123.664062 178.84375 L 62.597656 137.628906 L 94.484375 90.367188 L 142.675781 122.867188 C 145.894531 125.039062 150.042969 125.25 153.457031 123.4375 C 156.882812 121.609375 159.007812 118.0625 159.007812 114.183594 L 159.007812 56.054688 L 216.019531 56.054688 L 216.019531 114.183594 C 216.019531 118.0625 218.160156 121.625 221.570312 123.4375 C 224.984375 125.25 229.132812 125.039062 232.351562 122.867188 L 280.542969 90.367188 L 312.429688 137.628906 L 251.363281 178.8125 C 248.472656 180.761719 246.738281 184.023438 246.738281 187.496094 C 246.738281 190.96875 248.472656 194.234375 251.363281 196.179688 L 312.429688 237.363281 Z M 280.554688 284.65625 " fill-opacity="1" fill-rule="nonzero"/></svg>