<svg xmlns="http://www.w3.org/2000/svg" xmlns:xlink="http://www.w3.org/1999/xlink" width="500" zoomAndPan="magnify" viewBox="0 0 375 374.999991" height="500" preserveAspectRatio="xMidYMid meet" version="1.0"><defs><clipPath id="80b465631e"><path d="M 27.0625 2.507812 L 348 2.507812 L 348 372 L 27.0625 372 Z M 27.0625 2.507812 " clip-rule="nonzero"/></clipPath></defs><g clip-path="url(#80b465631e)"><path fill="#8fdcf0" d="M 347.914062 218.5625 L 347.914062 224.410156 C 347.914062 240.726562 334.644531 253.992188 318.332031 253.992188 L 254.773438 253.992188 L 281.125 338.730469 C 283.160156 345.269531 282.527344 352.214844 279.339844 358.285156 C 276.148438 364.34375 270.789062 368.808594 264.246094 370.84375 C 261.769531 371.613281 259.210938 371.996094 256.628906 371.996094 C 245.335938 371.996094 235.496094 364.746094 232.136719 353.957031 L 213.136719 292.859375 L 213.136719 346.347656 C 213.136719 360.488281 201.628906 371.996094 187.488281 371.996094 C 173.347656 371.996094 161.839844 360.488281 161.839844 346.347656 L 161.839844 292.859375 L 142.839844 353.957031 C 139.488281 364.746094 129.648438 371.988281 118.347656 371.988281 C 115.757812 371.988281 113.183594 371.59375 110.703125 370.824219 C 104.1875 368.800781 98.828125 364.34375 95.640625 358.273438 C 92.449219 352.214844 91.816406 345.269531 93.851562 338.722656 L 120.203125 253.984375 L 56.644531 253.984375 C 40.332031 253.984375 27.0625 240.714844 27.0625 224.402344 L 27.0625 218.554688 C 27.0625 206.433594 34.398438 195.984375 44.863281 191.425781 L 44.863281 48.3125 C 44.863281 31.027344 58.925781 16.960938 76.214844 16.960938 L 134.121094 16.960938 C 139.363281 8.582031 148.65625 2.992188 159.238281 2.992188 L 215.726562 2.992188 C 226.3125 2.992188 235.613281 8.582031 240.839844 16.960938 L 298.746094 16.960938 C 316.035156 16.960938 330.097656 31.027344 330.097656 48.3125 L 330.097656 191.425781 C 340.570312 195.992188 347.914062 206.433594 347.914062 218.5625 Z M 347.914062 218.5625 " fill-opacity="1" fill-rule="nonzero"/></g><path fill="#000000" d="M 318.324219 206.074219 L 313.007812 206.074219 L 313.007812 48.3125 C 313.007812 40.457031 306.613281 34.0625 298.753906 34.0625 L 228.21875 34.0625 L 228.21875 32.574219 C 228.21875 25.691406 222.621094 20.089844 215.738281 20.089844 L 159.238281 20.089844 C 152.359375 20.089844 146.757812 25.691406 146.757812 32.574219 L 146.757812 34.0625 L 76.222656 34.0625 C 68.363281 34.0625 61.96875 40.457031 61.96875 48.3125 L 61.96875 206.074219 L 56.644531 206.074219 C 49.761719 206.074219 44.160156 211.671875 44.160156 218.554688 L 44.160156 224.402344 C 44.160156 231.285156 49.761719 236.886719 56.644531 236.886719 L 147.902344 236.886719 L 114.269531 345.074219 C 113.566406 347.332031 114.824219 349.726562 117.082031 350.425781 C 117.5 350.554688 117.929688 350.621094 118.355469 350.621094 C 120.175781 350.621094 121.871094 349.453125 122.433594 347.613281 L 156.863281 236.886719 L 183.222656 236.886719 L 183.222656 346.347656 C 183.222656 348.707031 185.136719 350.621094 187.496094 350.621094 C 189.855469 350.621094 191.773438 348.707031 191.773438 346.347656 L 191.773438 236.886719 L 218.128906 236.886719 L 252.558594 347.613281 C 253.132812 349.441406 254.816406 350.621094 256.636719 350.621094 C 257.058594 350.621094 257.484375 350.5625 257.914062 350.425781 C 260.167969 349.726562 261.425781 347.332031 260.726562 345.074219 L 227.082031 236.886719 L 318.34375 236.886719 C 325.222656 236.886719 330.824219 231.285156 330.824219 224.402344 L 330.824219 218.554688 C 330.816406 211.671875 325.214844 206.074219 318.324219 206.074219 Z M 155.308594 32.574219 C 155.308594 30.402344 157.070312 28.640625 159.238281 28.640625 L 215.726562 28.640625 C 217.898438 28.640625 219.660156 30.402344 219.660156 32.574219 L 219.660156 44.089844 C 219.660156 46.261719 217.890625 48.023438 215.726562 48.023438 L 159.238281 48.023438 C 157.070312 48.023438 155.308594 46.261719 155.308594 44.089844 Z M 70.511719 48.3125 C 70.511719 45.167969 73.066406 42.609375 76.214844 42.609375 L 146.757812 42.609375 L 146.757812 44.097656 C 146.757812 50.980469 152.359375 56.582031 159.238281 56.582031 L 215.726562 56.582031 C 222.609375 56.582031 228.210938 50.980469 228.210938 44.097656 L 228.210938 42.609375 L 298.746094 42.609375 C 301.890625 42.609375 304.449219 45.167969 304.449219 48.3125 L 304.449219 206.074219 L 70.511719 206.074219 Z M 322.265625 224.402344 C 322.265625 226.574219 320.496094 228.335938 318.332031 228.335938 L 56.644531 228.335938 C 54.472656 228.335938 52.710938 226.574219 52.710938 224.402344 L 52.710938 218.554688 C 52.710938 216.382812 54.472656 214.621094 56.644531 214.621094 L 318.324219 214.621094 C 320.496094 214.621094 322.257812 216.390625 322.257812 218.554688 L 322.257812 224.402344 Z M 322.265625 224.402344 " fill-opacity="1" fill-rule="nonzero"/></svg>