<svg xmlns="http://www.w3.org/2000/svg" xmlns:xlink="http://www.w3.org/1999/xlink" width="500" zoomAndPan="magnify" viewBox="0 0 375 374.999991" height="500" preserveAspectRatio="xMidYMid meet" version="1.0"><defs><clipPath id="a04fbefc2a"><path d="M 7.933594 50.050781 L 367.183594 50.050781 L 367.183594 325.300781 L 7.933594 325.300781 Z M 7.933594 50.050781 " clip-rule="nonzero"/></clipPath></defs><g clip-path="url(#a04fbefc2a)"><path fill="#ffb3f7" d="M 367.199219 84.199219 L 367.199219 291.128906 C 367.199219 309.902344 351.941406 325.164062 333.195312 325.164062 L 41.9375 325.164062 C 23.191406 325.164062 7.933594 309.894531 7.933594 291.128906 L 7.933594 84.199219 C 7.933594 65.433594 23.191406 50.160156 41.9375 50.160156 L 333.195312 50.160156 C 351.941406 50.160156 367.199219 65.433594 367.199219 84.199219 Z M 367.199219 84.199219 " fill-opacity="1" fill-rule="nonzero"/></g><path fill="#000000" d="M 352.753906 114.042969 C 352.753906 113.503906 352.605469 113.011719 352.371094 112.566406 L 352.371094 84.199219 C 352.371094 73.613281 343.773438 65.011719 333.203125 65.011719 L 41.9375 65.011719 C 31.367188 65.011719 22.769531 73.613281 22.769531 84.199219 L 22.769531 112.566406 C 22.527344 113.003906 22.386719 113.503906 22.386719 114.042969 C 22.386719 114.585938 22.535156 115.078125 22.769531 115.523438 L 22.769531 291.128906 C 22.769531 301.710938 31.367188 310.316406 41.9375 310.316406 L 333.195312 310.316406 C 343.765625 310.316406 352.363281 301.710938 352.363281 291.128906 L 352.363281 115.515625 C 352.605469 115.078125 352.753906 114.578125 352.753906 114.042969 Z M 41.9375 71.261719 L 333.195312 71.261719 C 340.324219 71.261719 346.117188 77.070312 346.117188 84.199219 L 346.117188 110.910156 L 29.015625 110.910156 L 29.015625 84.199219 C 29.015625 77.070312 34.816406 71.261719 41.9375 71.261719 Z M 333.195312 304.0625 L 41.9375 304.0625 C 34.808594 304.0625 29.015625 298.257812 29.015625 291.128906 L 29.015625 117.171875 L 346.117188 117.171875 L 346.117188 291.128906 C 346.117188 298.265625 340.324219 304.0625 333.195312 304.0625 Z M 306.21875 99.242188 L 314.277344 91.175781 L 306.21875 83.109375 C 305 81.890625 305 79.914062 306.21875 78.6875 C 307.4375 77.46875 309.417969 77.46875 310.636719 78.6875 L 318.695312 86.753906 L 326.753906 78.6875 C 327.972656 77.46875 329.953125 77.46875 331.171875 78.6875 C 332.390625 79.90625 332.390625 81.882812 331.171875 83.109375 L 323.113281 91.175781 L 331.171875 99.242188 C 332.390625 100.460938 332.390625 102.4375 331.171875 103.664062 C 330.5625 104.277344 329.765625 104.582031 328.960938 104.582031 C 328.160156 104.582031 327.363281 104.277344 326.753906 103.664062 L 318.695312 95.59375 L 310.636719 103.65625 C 310.027344 104.269531 309.230469 104.574219 308.425781 104.574219 C 307.625 104.574219 306.828125 104.269531 306.21875 103.65625 C 305 102.4375 305 100.460938 306.21875 99.242188 Z M 269.253906 104.574219 L 289.789062 104.574219 C 291.515625 104.574219 292.914062 103.171875 292.914062 101.445312 L 292.914062 80.890625 C 292.914062 79.164062 291.515625 77.765625 289.789062 77.765625 L 269.253906 77.765625 C 267.527344 77.765625 266.132812 79.164062 266.132812 80.890625 L 266.132812 101.445312 C 266.132812 103.171875 267.527344 104.574219 269.253906 104.574219 Z M 272.378906 84.027344 L 286.667969 84.027344 L 286.667969 98.328125 L 272.378906 98.328125 Z M 222.90625 101.445312 C 222.90625 99.71875 224.304688 98.320312 226.027344 98.320312 L 246.5625 98.320312 C 248.289062 98.320312 249.6875 99.71875 249.6875 101.445312 C 249.6875 103.171875 248.289062 104.574219 246.5625 104.574219 L 226.027344 104.574219 C 224.304688 104.574219 222.90625 103.171875 222.90625 101.445312 Z M 222.90625 101.445312 " fill-opacity="1" fill-rule="nonzero"/></svg>