<svg xmlns="http://www.w3.org/2000/svg" xmlns:xlink="http://www.w3.org/1999/xlink" width="300" zoomAndPan="magnify" viewBox="0 0 224.87999 74.999997" height="100" preserveAspectRatio="xMidYMid meet" version="1.0"><defs><clipPath id="505e226313"><path d="M 9 2.125 L 217 2.125 L 217 74 L 9 74 Z M 9 2.125 " clip-rule="nonzero"/></clipPath></defs><g clip-path="url(#505e226313)"><path fill="#ccddea" d="M 211.171875 32.945312 C 211.222656 33.699219 211.261719 34.457031 211.261719 35.222656 L 211.261719 40.65625 C 211.261719 40.875 211.261719 41.09375 211.253906 41.316406 C 211.050781 52.523438 205.007812 63.019531 195.464844 68.875 C 182.984375 76.558594 164.46875 74.023438 151.042969 70.289062 C 148.964844 69.699219 146.867188 69.023438 144.820312 68.230469 C 134.664062 64.347656 125.335938 57.816406 121.085938 47.695312 C 120.636719 46.625 120.246094 45.515625 119.917969 44.359375 C 117.699219 36.625 118.417969 28.910156 121.289062 22.230469 C 116.402344 19.082031 114.558594 18.558594 113.875 18.558594 L 111.445312 18.558594 C 111.09375 18.558594 109.242188 18.738281 104.339844 21.828125 C 107.359375 28.601562 108.140625 36.472656 105.882812 44.351562 C 105.554688 45.507812 105.164062 46.617188 104.714844 47.6875 C 100.464844 57.800781 91.136719 64.339844 80.980469 68.222656 C 78.933594 69.015625 76.84375 69.699219 74.757812 70.277344 C 61.332031 74.015625 42.816406 76.550781 30.335938 68.867188 C 20.792969 63.011719 14.757812 52.523438 14.546875 41.308594 C 14.539062 41.085938 14.539062 40.867188 14.539062 40.648438 L 14.539062 35.214844 C 14.539062 34.449219 14.570312 33.6875 14.628906 32.9375 C 11.445312 32.15625 9.066406 29.277344 9.066406 25.859375 C 9.066406 21.847656 12.351562 18.558594 16.367188 18.558594 L 19.039062 18.558594 C 24.78125 8.730469 35.433594 2.125 47.636719 2.125 L 74.070312 2.125 C 85.621094 2.125 95.492188 7.929688 101.363281 16.519531 C 105.710938 13.8125 109.03125 12.472656 111.4375 12.472656 L 113.867188 12.472656 C 116.671875 12.472656 120.382812 14.433594 124.183594 16.863281 C 130.050781 8.085938 140.015625 2.125 151.730469 2.125 L 178.164062 2.125 C 190.367188 2.125 201.019531 8.730469 206.761719 18.558594 L 209.4375 18.558594 C 213.449219 18.558594 216.734375 21.847656 216.734375 25.859375 C 216.734375 29.277344 214.355469 32.15625 211.171875 32.945312 Z M 211.171875 32.945312 " fill-opacity="1" fill-rule="nonzero"/></g><path fill="#0a1716" d="M 49.121094 57.585938 C 48.707031 57.585938 48.289062 57.425781 47.972656 57.105469 L 32.882812 42.015625 C 32.246094 41.382812 32.246094 40.34375 32.882812 39.707031 C 33.519531 39.074219 34.554688 39.074219 35.191406 39.707031 L 50.28125 54.796875 C 50.914062 55.433594 50.914062 56.46875 50.28125 57.105469 C 49.960938 57.425781 49.539062 57.585938 49.121094 57.585938 Z M 60.882812 57.105469 C 61.519531 56.46875 61.519531 55.433594 60.882812 54.796875 L 45.792969 39.707031 C 45.15625 39.074219 44.121094 39.074219 43.484375 39.707031 C 42.847656 40.34375 42.847656 41.382812 43.484375 42.015625 L 58.574219 57.105469 C 58.894531 57.425781 59.308594 57.585938 59.726562 57.585938 C 60.140625 57.585938 60.566406 57.425781 60.882812 57.105469 Z M 156.3125 53.027344 C 156.949219 52.390625 156.949219 51.355469 156.3125 50.71875 L 141.222656 35.628906 C 140.585938 34.996094 139.550781 34.996094 138.914062 35.628906 C 138.277344 36.265625 138.277344 37.300781 138.914062 37.9375 L 154.003906 53.027344 C 154.324219 53.347656 154.738281 53.507812 155.15625 53.507812 C 155.570312 53.507812 155.988281 53.347656 156.3125 53.027344 Z M 166.917969 53.027344 C 167.550781 52.390625 167.550781 51.355469 166.917969 50.71875 L 151.828125 35.628906 C 151.191406 34.996094 150.15625 34.996094 149.519531 35.628906 C 148.882812 36.265625 148.882812 37.300781 149.519531 37.9375 L 164.609375 53.027344 C 164.925781 53.347656 165.34375 53.507812 165.757812 53.507812 C 166.175781 53.507812 166.589844 53.347656 166.917969 53.027344 Z M 166.917969 53.027344 " fill-opacity="1" fill-rule="nonzero"/></svg>